<?xml version="1.0" standalone="no"?><!DOCTYPE svg PUBLIC "-//W3C//DTD SVG 1.1//EN" "http://www.w3.org/Graphics/SVG/1.1/DTD/svg11.dtd"><svg class="icon" width="16px" height="16.00px" viewBox="0 0 1024 1024" version="1.1" xmlns="http://www.w3.org/2000/svg"><path d="M516.8 276.4l234 234.8 57-56.8-234.2-234.8-56.8 56.8z m201 268.2L483.2 310 180.4 613l234.6 234.2 302.8-302.6zM616.4 67.4c44.8-37.2 100.2-56 155.6-56 135 0 244 109.8 244 244.6 0 63-23.6 125.4-71.4 173L453.8 920c-38.4 38.4-87 61-136.8 68.6-42 6.4-85 1.8-125.2-13.6l-13.8 13.6c-52 52.4-134.4 29.2-161-33-14-33-11.4-72.8 22.2-105.8l14-14c-15.6-39.8-20.2-83.2-14-124.6 7.2-50 30-99 68.4-136.8L581.8 99.8l-34.4-34.6-266.2 265.6c-9 9.6-24 9.6-33 0-9.6-9-9.6-23.8 0-33.6L530.8 14.4c9-8.6 24-8.6 33.6 0l52 53zM772 90.6c-42.6 0-84.2 15.4-116.2 46.4l-1.4 1.6L607 186l234.6 234.8 47.4-47.6c32.2-32.2 48.4-74.4 48.4-117.2-0.2-91.6-74-165.4-165.4-165.4zM148.4 647.6c-17.4 22.6-27.4 48.6-31.4 75-5 34.2 0.6 69.6 16.8 101.4 9.2 14.8 7.2 35-5.6 48.2l-33.6 33.2c-18 18.2 9.8 45.6 27.4 27.4l32-31.8c12.2-13.2 32-16.6 48.2-8.4 32 17.6 68.4 23.2 103 18.2 26.4-4 52-14 74.8-31L148.4 647.6z" fill="white" /></svg>